<mxfile host="Electron" modified="2023-11-01T08:27:15.384Z" agent="Mozilla/5.0 (Windows NT 10.0; Win64; x64) AppleWebKit/537.36 (KHTML, like Gecko) draw.io/21.2.8 Chrome/112.0.5615.165 Electron/24.2.0 Safari/537.36" etag="_1Y40RcaucQSIcTd4Hm9" version="21.2.8" type="device">
  <diagram name="第 1 页" id="8IEi8LyrVbu8YMSA1M3z">
    <mxGraphModel dx="1036" dy="656" grid="1" gridSize="10" guides="1" tooltips="1" connect="1" arrows="1" fold="1" page="1" pageScale="1" pageWidth="3300" pageHeight="4681" math="0" shadow="0">
      <root>
        <mxCell id="0" />
        <mxCell id="1" parent="0" />
        <mxCell id="W5t24rz5G6J5IaTAQYe1-19" value="MybatisPlus" style="rounded=1;whiteSpace=wrap;html=1;fontSize=19;verticalAlign=top;fillColor=#eeeeee;strokeColor=none;arcSize=10;fontStyle=1" parent="1" vertex="1">
          <mxGeometry x="520" y="480" width="180" height="120" as="geometry" />
        </mxCell>
        <mxCell id="W5t24rz5G6J5IaTAQYe1-12" value="SpirngMVC" style="rounded=1;whiteSpace=wrap;html=1;fontSize=19;verticalAlign=top;fillColor=#eeeeee;strokeColor=none;arcSize=7;fontStyle=1" parent="1" vertex="1">
          <mxGeometry x="720" y="455" width="480" height="170" as="geometry" />
        </mxCell>
        <mxCell id="W5t24rz5G6J5IaTAQYe1-9" value="前端" style="rounded=1;whiteSpace=wrap;html=1;fontSize=19;verticalAlign=top;fillColor=#eeeeee;strokeColor=none;arcSize=10;fontStyle=1" parent="1" vertex="1">
          <mxGeometry x="1220" y="480" width="240" height="120" as="geometry" />
        </mxCell>
        <mxCell id="W5t24rz5G6J5IaTAQYe1-23" style="edgeStyle=none;curved=1;rounded=0;orthogonalLoop=1;jettySize=auto;html=1;exitX=0;exitY=0.5;exitDx=0;exitDy=0;entryX=1;entryY=0.5;entryDx=0;entryDy=0;fontSize=12;startSize=8;endSize=8;" parent="1" source="W5t24rz5G6J5IaTAQYe1-10" target="W5t24rz5G6J5IaTAQYe1-13" edge="1">
          <mxGeometry relative="1" as="geometry" />
        </mxCell>
        <mxCell id="W5t24rz5G6J5IaTAQYe1-10" value="/admin/label/list?&lt;b style=&quot;font-size: 19px;&quot;&gt;&lt;font color=&quot;#00cc00&quot; style=&quot;font-size: 19px;&quot;&gt;type=1&lt;/font&gt;&lt;/b&gt;" style="rounded=1;whiteSpace=wrap;html=1;fontSize=19;" parent="1" vertex="1">
          <mxGeometry x="1230" y="535" width="220" height="30" as="geometry" />
        </mxCell>
        <mxCell id="W5t24rz5G6J5IaTAQYe1-24" style="edgeStyle=none;curved=1;rounded=0;orthogonalLoop=1;jettySize=auto;html=1;exitX=0;exitY=0.5;exitDx=0;exitDy=0;entryX=1;entryY=0.5;entryDx=0;entryDy=0;fontSize=12;startSize=8;endSize=8;" parent="1" source="W5t24rz5G6J5IaTAQYe1-13" target="W5t24rz5G6J5IaTAQYe1-15" edge="1">
          <mxGeometry relative="1" as="geometry" />
        </mxCell>
        <mxCell id="W5t24rz5G6J5IaTAQYe1-13" value="WebDataBinder" style="rounded=1;whiteSpace=wrap;html=1;fontSize=19;fillColor=#008a00;fontColor=#ffffff;strokeColor=#005700;fontStyle=1" parent="1" vertex="1">
          <mxGeometry x="1020" y="535" width="160" height="30" as="geometry" />
        </mxCell>
        <mxCell id="W5t24rz5G6J5IaTAQYe1-27" style="edgeStyle=none;curved=1;rounded=0;orthogonalLoop=1;jettySize=auto;html=1;exitX=0;exitY=0.5;exitDx=0;exitDy=0;entryX=1;entryY=0.5;entryDx=0;entryDy=0;fontSize=12;startSize=8;endSize=8;" parent="1" source="W5t24rz5G6J5IaTAQYe1-15" target="W5t24rz5G6J5IaTAQYe1-26" edge="1">
          <mxGeometry relative="1" as="geometry" />
        </mxCell>
        <mxCell id="W5t24rz5G6J5IaTAQYe1-15" value="&lt;div style=&quot;font-size: 19px;&quot;&gt;&lt;span style=&quot;background-color: initial; font-size: 19px;&quot;&gt;Controller方法参数&lt;/span&gt;&lt;/div&gt;&lt;div style=&quot;font-size: 19px;&quot;&gt;&lt;span style=&quot;background-color: initial; font-size: 19px;&quot;&gt;&lt;font style=&quot;font-size: 19px;&quot;&gt;&lt;br style=&quot;font-size: 19px;&quot;&gt;&lt;/font&gt;&lt;/span&gt;&lt;/div&gt;&lt;b style=&quot;color: rgb(255, 128, 0); font-size: 19px;&quot;&gt;&lt;div style=&quot;text-align: left; font-size: 19px;&quot;&gt;&lt;b style=&quot;background-color: initial; font-size: 19px;&quot;&gt;@RequestParam &lt;/b&gt;&lt;b style=&quot;background-color: initial; color: rgb(0, 0, 0); font-size: 19px;&quot;&gt;ItemType&lt;/b&gt;&lt;/div&gt;&lt;/b&gt;&lt;b style=&quot;font-size: 19px;&quot;&gt;&lt;div style=&quot;text-align: left; font-size: 19px;&quot;&gt;&lt;b style=&quot;background-color: initial; font-size: 19px;&quot;&gt;&lt;font color=&quot;#00cc00&quot; style=&quot;font-size: 19px;&quot;&gt;ItemType.APARTMENT&lt;/font&gt;&lt;/b&gt;&lt;/div&gt;&lt;/b&gt;" style="rounded=1;whiteSpace=wrap;html=1;fontSize=19;align=center;arcSize=8;" parent="1" vertex="1">
          <mxGeometry x="745" y="500" width="250" height="100" as="geometry" />
        </mxCell>
        <mxCell id="W5t24rz5G6J5IaTAQYe1-25" value="数据库" style="shape=cylinder3;whiteSpace=wrap;html=1;boundedLbl=1;backgroundOutline=1;size=15;fontSize=20;strokeWidth=2;fontStyle=1" parent="1" vertex="1">
          <mxGeometry x="160" y="472.5" width="120" height="155" as="geometry" />
        </mxCell>
        <mxCell id="W5t24rz5G6J5IaTAQYe1-28" style="edgeStyle=none;curved=1;rounded=0;orthogonalLoop=1;jettySize=auto;html=1;exitX=0;exitY=0.5;exitDx=0;exitDy=0;fontSize=12;startSize=8;endSize=8;entryX=1;entryY=0.5;entryDx=0;entryDy=0;" parent="1" source="W5t24rz5G6J5IaTAQYe1-26" target="W5t24rz5G6J5IaTAQYe1-29" edge="1">
          <mxGeometry relative="1" as="geometry">
            <mxPoint x="460" y="550" as="targetPoint" />
          </mxGeometry>
        </mxCell>
        <mxCell id="W5t24rz5G6J5IaTAQYe1-26" value="TypeHandler" style="rounded=1;whiteSpace=wrap;html=1;fontSize=19;fillColor=#1ba1e2;fontColor=#ffffff;strokeColor=#006EAF;fontStyle=1" parent="1" vertex="1">
          <mxGeometry x="545" y="535" width="130" height="30" as="geometry" />
        </mxCell>
        <mxCell id="W5t24rz5G6J5IaTAQYe1-30" style="edgeStyle=none;curved=1;rounded=0;orthogonalLoop=1;jettySize=auto;html=1;exitX=0;exitY=0.5;exitDx=0;exitDy=0;entryX=1;entryY=0.5;entryDx=0;entryDy=0;entryPerimeter=0;fontSize=12;startSize=8;endSize=8;" parent="1" target="W5t24rz5G6J5IaTAQYe1-25" edge="1">
          <mxGeometry relative="1" as="geometry">
            <mxPoint x="320" y="550.0000000000002" as="sourcePoint" />
          </mxGeometry>
        </mxCell>
        <mxCell id="W5t24rz5G6J5IaTAQYe1-29" value="select * from label_info where &lt;b style=&quot;font-size: 19px;&quot;&gt;&lt;font color=&quot;#00cc00&quot; style=&quot;font-size: 19px;&quot;&gt;type=1&lt;/font&gt;&lt;/b&gt;" style="rounded=1;whiteSpace=wrap;html=1;fontSize=19;" parent="1" vertex="1">
          <mxGeometry x="300" y="520" width="200" height="60" as="geometry" />
        </mxCell>
      </root>
    </mxGraphModel>
  </diagram>
</mxfile>
